<svg width="900" height="900" viewBox="0 0 900 900" fill="none" xmlns="http://www.w3.org/2000/svg">
  <rect width="900" height="900" fill="url(#bg)"/>
  <rect x="110" y="250" width="680" height="380" rx="42" fill="#F8F4EA"/>
  <rect x="150" y="300" width="260" height="250" rx="26" fill="#8BD3DD"/>
  <rect x="490" y="300" width="260" height="250" rx="26" fill="#6DB7C2"/>
  <path d="M184 380C226 352 278 352 326 380C370 406 398 406 430 380" stroke="#F8F4EA" stroke-width="10" stroke-linecap="round"/>
  <path d="M524 412C566 384 618 384 666 412C710 438 738 438 770 412" stroke="#F8F4EA" stroke-width="10" stroke-linecap="round"/>
  <circle cx="222" cy="360" r="18" fill="#35563A"/>
  <circle cx="560" cy="392" r="18" fill="#35563A"/>
  <rect x="170" y="190" width="18" height="70" rx="9" fill="#6B4226"/>
  <circle cx="179" cy="172" r="36" fill="#6C996B"/>
  <rect x="704" y="180" width="18" height="80" rx="9" fill="#6B4226"/>
  <circle cx="713" cy="158" r="40" fill="#5E845F"/>
  <path d="M0 700C116 648 242 642 360 690C488 742 616 746 738 698C806 672 854 668 900 680V900H0V700Z" fill="#4F6F52"/>
  <defs>
    <linearGradient id="bg" x1="450" y1="0" x2="450" y2="900" gradientUnits="userSpaceOnUse">
      <stop stop-color="#F8F4EA"/>
      <stop offset="1" stop-color="#DCECC8"/>
    </linearGradient>
  </defs>
</svg>
