<svg width="1200" height="900" viewBox="0 0 1200 900" fill="none" xmlns="http://www.w3.org/2000/svg">
  <rect width="1200" height="900" rx="48" fill="url(#bg)"/>
  <circle cx="900" cy="180" r="70" fill="#FFD166" fill-opacity="0.9"/>
  <path d="M420 240H780L830 700C833 739 802 772 763 772H437C398 772 367 739 370 700L420 240Z" fill="#E4A11B"/>
  <path d="M420 240H780L806 430H394L420 240Z" fill="#FFD166"/>
  <rect x="470" y="160" width="260" height="110" rx="28" fill="#6B4226"/>
  <rect x="506" y="188" width="188" height="58" rx="18" fill="#8B5E34"/>
  <rect x="450" y="468" width="300" height="160" rx="30" fill="#F8F4EA" fill-opacity="0.92"/>
  <path d="M486 548H714" stroke="#D79A15" stroke-width="18" stroke-linecap="round"/>
  <path d="M486 510H654" stroke="#C27D0E" stroke-width="18" stroke-linecap="round"/>
  <path d="M486 586H672" stroke="#E4A11B" stroke-width="18" stroke-linecap="round"/>
  <path d="M238 338L282 312L326 338V388L282 414L238 388V338Z" fill="#FFD166" fill-opacity="0.75"/>
  <path d="M206 456L250 430L294 456V506L250 532L206 506V456Z" fill="#F6C453" fill-opacity="0.72"/>
  <path d="M898 332L942 306L986 332V382L942 408L898 382V332Z" fill="#FFD166" fill-opacity="0.7"/>
  <defs>
    <linearGradient id="bg" x1="600" y1="0" x2="600" y2="900" gradientUnits="userSpaceOnUse">
      <stop stop-color="#FFF4D6"/>
      <stop offset="1" stop-color="#F3E5AB"/>
    </linearGradient>
  </defs>
</svg>
